# xmcd
#
# Track frame offsets: 
#        150
#        20947
#        37307
#        52647
#        71257
#        88027
#        109930
#        128125
#        147042
#        164275
#        182535
#        199320
#
# Disc length: 2980 seconds
#
# Revision: 3
# Processed by: cddbd v1.5.2PL0 Copyright (c) Steve Scherf et al.
# Submitted via: ExactAudioCopy v0.99pb5
#
DISCID=a60ba20c
DTITLE=Garbage - Version 2.0 [UK]
DYEAR=1998
DGENRE=Death-pop
TTITLE0=Temptation Waits
TTITLE1=I Think I'm Paranoid
TTITLE2=When I Grow Up
TTITLE3=Medication
TTITLE4=Special
TTITLE5=Hammering In My Head
TTITLE6=Push It
TTITLE7=The Trick Is To Keep Breathing
TTITLE8=Dumb
TTITLE9=Sleep Together
TTITLE10=Wicked Ways
TTITLE11=You Look So Fine
EXTD=
EXTT0=
EXTT1=
EXTT2=
EXTT3=
EXTT4=
EXTT5=
EXTT6=
EXTT7=
EXTT8=
EXTT9=
EXTT10=
EXTT11=
PLAYORDER=
